<mxfile host="65bd71144e">
    <diagram id="JiGR4PlRkXd8gsyUCoSm" name="Page-2">
        <mxGraphModel dx="1826" dy="1802" grid="1" gridSize="10" guides="1" tooltips="1" connect="1" arrows="1" fold="1" page="1" pageScale="1" pageWidth="850" pageHeight="1100" math="0" shadow="0">
            <root>
                <mxCell id="0"/>
                <mxCell id="1" parent="0"/>
                <mxCell id="gJSZAEyvjPOZr997jJGq-1" value="" style="rounded=0;whiteSpace=wrap;html=1;fontFamily=JetBrains Mono;fontSource=https%3A%2F%2Ffonts.googleapis.com%2Fcss%3Ffamily%3DJetBrains%2BMono;fontSize=12;fillColor=#FFFFFF;strokeColor=none;fontStyle=1" vertex="1" parent="1">
                    <mxGeometry x="-200.62" y="-60" width="840.62" height="460" as="geometry"/>
                </mxCell>
                <mxCell id="hnj8Xd_3GWVb7aSkv3pW-4" value="" style="rounded=1;whiteSpace=wrap;html=1;fillColor=none;strokeColor=#969dc4;arcSize=4;strokeWidth=2;fontFamily=JetBrains Mono;fontSource=https%3A%2F%2Ffonts.googleapis.com%2Fcss%3Ffamily%3DJetBrains%2BMono;fillStyle=auto;fontSize=12;dashed=1;fontStyle=1;dashPattern=1 1;" vertex="1" parent="1">
                    <mxGeometry x="60" y="-40" width="520" height="360" as="geometry"/>
                </mxCell>
                <mxCell id="bnyccf4tq5gMHjGijBqo-1" value="" style="rounded=1;whiteSpace=wrap;html=1;fillColor=#969dc4;fontColor=#f5f5fb;strokeColor=none;arcSize=8;strokeWidth=2;fontFamily=JetBrains Mono;fontSource=https%3A%2F%2Ffonts.googleapis.com%2Fcss%3Ffamily%3DJetBrains%2BMono;fillStyle=auto;fontSize=12;dashed=1;fontStyle=1" vertex="1" parent="1">
                    <mxGeometry x="80" y="110" width="480" height="190" as="geometry"/>
                </mxCell>
                <mxCell id="bnyccf4tq5gMHjGijBqo-2" value="&lt;font style=&quot;font-size: 12px;&quot;&gt;Project&lt;/font&gt;" style="text;html=1;strokeColor=none;fillColor=none;align=left;verticalAlign=middle;whiteSpace=wrap;rounded=0;fontColor=#FFFFFF;strokeWidth=2;fontFamily=JetBrains Mono;fontSource=https%3A%2F%2Ffonts.googleapis.com%2Fcss%3Ffamily%3DJetBrains%2BMono;fontSize=12;fontStyle=1;" vertex="1" parent="1">
                    <mxGeometry x="90" y="110" width="60" height="20" as="geometry"/>
                </mxCell>
                <mxCell id="VuzVW0iICYeL6givkyNs-1" value="" style="rounded=1;whiteSpace=wrap;html=1;fontFamily=JetBrains Mono;fontSource=https%3A%2F%2Ffonts.googleapis.com%2Fcss%3Ffamily%3DJetBrains%2BMono;arcSize=9;strokeColor=#969dc4;" vertex="1" parent="1">
                    <mxGeometry x="200" y="130" width="280" height="150" as="geometry"/>
                </mxCell>
                <mxCell id="cByLr9WJCnIx92zwTk1R-1" value="Node" style="rounded=1;whiteSpace=wrap;html=1;fontFamily=JetBrains Mono;fontSource=https%3A%2F%2Ffonts.googleapis.com%2Fcss%3Ffamily%3DJetBrains%2BMono;fillColor=#e7e9f5;strokeColor=#e7e9f5;arcSize=25;fontStyle=1" vertex="1" parent="1">
                    <mxGeometry x="60" y="340" width="160" height="40" as="geometry"/>
                </mxCell>
                <mxCell id="B4JtqG_DDtxfmfYKR_Yt-1" style="edgeStyle=orthogonalEdgeStyle;html=1;exitX=1;exitY=0.5;exitDx=0;exitDy=0;strokeWidth=2;fontFamily=JetBrains Mono;fontSource=https%3A%2F%2Ffonts.googleapis.com%2Fcss%3Ffamily%3DJetBrains%2BMono;startArrow=classic;startFill=1;endArrow=classic;endFill=1;strokeColor=#0064ff;" edge="1" parent="1" source="2qW9PLPHOKNcxXR3OyHD-1" target="tCeIgooIZ00QgZ7ANOQ--1">
                    <mxGeometry relative="1" as="geometry"/>
                </mxCell>
                <mxCell id="2qW9PLPHOKNcxXR3OyHD-1" value="Kubernets API" style="rounded=1;whiteSpace=wrap;html=1;fillColor=#0064ff;strokeColor=#0064ff;fontFamily=JetBrains Mono;fontSource=https%3A%2F%2Ffonts.googleapis.com%2Fcss%3Ffamily%3DJetBrains%2BMono;fontStyle=1;fontColor=#f5f5fb;" vertex="1" parent="1">
                    <mxGeometry x="120" y="40" width="120" height="40" as="geometry"/>
                </mxCell>
                <mxCell id="-sqTpqL0dwXgetuoysCy-1" value="Node" style="rounded=1;whiteSpace=wrap;html=1;fontFamily=JetBrains Mono;fontSource=https%3A%2F%2Ffonts.googleapis.com%2Fcss%3Ffamily%3DJetBrains%2BMono;fillColor=#e7e9f5;strokeColor=#e7e9f5;arcSize=25;fontStyle=1" vertex="1" parent="1">
                    <mxGeometry x="240.63" y="340" width="158.75" height="40" as="geometry"/>
                </mxCell>
                <mxCell id="-sqTpqL0dwXgetuoysCy-2" value="Node" style="rounded=1;whiteSpace=wrap;html=1;fontFamily=JetBrains Mono;fontSource=https%3A%2F%2Ffonts.googleapis.com%2Fcss%3Ffamily%3DJetBrains%2BMono;fillColor=#e7e9f5;strokeColor=#e7e9f5;arcSize=25;fontStyle=1" vertex="1" parent="1">
                    <mxGeometry x="420" y="340" width="160" height="40" as="geometry"/>
                </mxCell>
                <mxCell id="_mrHalfvHpG46q4kBKCX-3" style="edgeStyle=orthogonalEdgeStyle;html=1;strokeWidth=2;fontFamily=JetBrains Mono;fontSource=https%3A%2F%2Ffonts.googleapis.com%2Fcss%3Ffamily%3DJetBrains%2BMono;endArrow=classic;endFill=1;strokeColor=#0064ff;startArrow=classic;startFill=1;" edge="1" parent="1" source="tCeIgooIZ00QgZ7ANOQ--1" target="VuzVW0iICYeL6givkyNs-1">
                    <mxGeometry relative="1" as="geometry"/>
                </mxCell>
                <mxCell id="tCeIgooIZ00QgZ7ANOQ--1" value="virtualization&lt;br&gt;API/Core" style="rounded=1;whiteSpace=wrap;html=1;fillColor=#0064ff;strokeColor=#0064ff;fontFamily=JetBrains Mono;fontSource=https%3A%2F%2Ffonts.googleapis.com%2Fcss%3Ffamily%3DJetBrains%2BMono;fontStyle=1;fontColor=#f5f5fb;" vertex="1" parent="1">
                    <mxGeometry x="280" y="40" width="120" height="40" as="geometry"/>
                </mxCell>
                <mxCell id="W5Z9enWTX4udHhQs1dox-6" style="edgeStyle=orthogonalEdgeStyle;html=1;exitX=0.5;exitY=1;exitDx=0;exitDy=0;fontFamily=JetBrains Mono;fontSource=https%3A%2F%2Ffonts.googleapis.com%2Fcss%3Ffamily%3DJetBrains%2BMono;endArrow=none;endFill=0;strokeColor=#5e6697;strokeWidth=2;" edge="1" parent="1" source="W5Z9enWTX4udHhQs1dox-1">
                    <mxGeometry relative="1" as="geometry">
                        <Array as="points">
                            <mxPoint x="250" y="210"/>
                            <mxPoint x="250" y="250"/>
                            <mxPoint x="380" y="250"/>
                        </Array>
                        <mxPoint x="380.0344827586207" y="223.9999999999999" as="targetPoint"/>
                    </mxGeometry>
                </mxCell>
                <mxCell id="W5Z9enWTX4udHhQs1dox-1" value="VM" style="rounded=1;whiteSpace=wrap;html=1;fillColor=#5e6697;strokeColor=#5e6697;fontColor=#f5f5fb;fontFamily=JetBrains Mono;fontSource=https%3A%2F%2Ffonts.googleapis.com%2Fcss%3Ffamily%3DJetBrains%2BMono;fontStyle=1" vertex="1" parent="1">
                    <mxGeometry x="230" y="170" width="40" height="40" as="geometry"/>
                </mxCell>
                <mxCell id="VuzVW0iICYeL6givkyNs-2" style="edgeStyle=orthogonalEdgeStyle;html=1;exitX=0.5;exitY=1;exitDx=0;exitDy=0;strokeWidth=2;fontFamily=JetBrains Mono;fontSource=https%3A%2F%2Ffonts.googleapis.com%2Fcss%3Ffamily%3DJetBrains%2BMono;startArrow=none;startFill=1;endArrow=classic;endFill=1;dashed=1;dashPattern=1 1;strokeColor=#0064ff;" edge="1" parent="1" source="54OrZGkI2vAi_LvFoxbb-1" target="qKPQg7KvYXNb3GQMNt82-2">
                    <mxGeometry relative="1" as="geometry">
                        <Array as="points">
                            <mxPoint x="500" y="193"/>
                        </Array>
                    </mxGeometry>
                </mxCell>
                <mxCell id="54OrZGkI2vAi_LvFoxbb-1" value="DVCR" style="rounded=1;whiteSpace=wrap;html=1;fillColor=#0064ff;strokeColor=#0064ff;fontFamily=JetBrains Mono;fontSource=https%3A%2F%2Ffonts.googleapis.com%2Fcss%3Ffamily%3DJetBrains%2BMono;fontStyle=1;fontColor=#f5f5fb;" vertex="1" parent="1">
                    <mxGeometry x="440" y="40" width="120" height="40" as="geometry"/>
                </mxCell>
                <mxCell id="_mrHalfvHpG46q4kBKCX-6" value="" style="edgeStyle=orthogonalEdgeStyle;html=1;exitX=0.5;exitY=1;exitDx=0;exitDy=0;fontFamily=JetBrains Mono;fontSource=https%3A%2F%2Ffonts.googleapis.com%2Fcss%3Ffamily%3DJetBrains%2BMono;endArrow=none;endFill=0;strokeColor=#5e6697;strokeWidth=2;" edge="1" parent="1" source="W5Z9enWTX4udHhQs1dox-1" target="W5Z9enWTX4udHhQs1dox-2">
                    <mxGeometry relative="1" as="geometry">
                        <mxPoint x="300" y="200" as="sourcePoint"/>
                        <mxPoint x="440" y="180" as="targetPoint"/>
                        <Array as="points">
                            <mxPoint x="250" y="210"/>
                            <mxPoint x="250" y="250"/>
                            <mxPoint x="310" y="250"/>
                        </Array>
                    </mxGeometry>
                </mxCell>
                <mxCell id="W5Z9enWTX4udHhQs1dox-2" value="" style="sketch=0;pointerEvents=1;shadow=0;dashed=0;html=1;strokeColor=#5e6697;fillColor=#5e6697;labelPosition=center;verticalLabelPosition=bottom;verticalAlign=top;outlineConnect=0;align=center;shape=mxgraph.office.devices.hard_disk;rounded=1;fontFamily=JetBrains Mono;fontSource=https%3A%2F%2Ffonts.googleapis.com%2Fcss%3Ffamily%3DJetBrains%2BMono;fontColor=#f5f5fb;" vertex="1" parent="1">
                    <mxGeometry x="291.25" y="170" width="40" height="54" as="geometry"/>
                </mxCell>
                <mxCell id="qKPQg7KvYXNb3GQMNt82-2" value="" style="sketch=0;pointerEvents=1;shadow=0;dashed=0;html=1;strokeColor=none;fillColor=#5e6697;labelPosition=center;verticalLabelPosition=bottom;verticalAlign=top;outlineConnect=0;align=center;shape=mxgraph.office.devices.cd_dvd;rounded=1;fontFamily=JetBrains Mono;fontSource=https%3A%2F%2Ffonts.googleapis.com%2Fcss%3Ffamily%3DJetBrains%2BMono;fontColor=#f5f5fb;" vertex="1" parent="1">
                    <mxGeometry x="411.25" y="170" width="45.75" height="45.75" as="geometry"/>
                </mxCell>
                <mxCell id="qKPQg7KvYXNb3GQMNt82-3" value="" style="sketch=0;pointerEvents=1;shadow=0;dashed=0;html=1;strokeColor=#5e6697;fillColor=#5e6697;labelPosition=center;verticalLabelPosition=bottom;verticalAlign=top;outlineConnect=0;align=center;shape=mxgraph.office.devices.hard_disk;rounded=1;fontFamily=JetBrains Mono;fontSource=https%3A%2F%2Ffonts.googleapis.com%2Fcss%3Ffamily%3DJetBrains%2BMono;fontColor=#f5f5fb;" vertex="1" parent="1">
                    <mxGeometry x="351.25" y="170" width="40" height="54" as="geometry"/>
                </mxCell>
                <mxCell id="qKPQg7KvYXNb3GQMNt82-4" value="" style="edgeStyle=orthogonalEdgeStyle;html=1;exitX=0.5;exitY=1;exitDx=0;exitDy=0;fontFamily=JetBrains Mono;fontSource=https%3A%2F%2Ffonts.googleapis.com%2Fcss%3Ffamily%3DJetBrains%2BMono;endArrow=none;endFill=0;strokeColor=#5e6697;strokeWidth=2;" edge="1" parent="1" source="W5Z9enWTX4udHhQs1dox-1" target="qKPQg7KvYXNb3GQMNt82-2">
                    <mxGeometry relative="1" as="geometry">
                        <mxPoint x="270" y="220" as="sourcePoint"/>
                        <mxPoint x="330.0344827586207" y="233.9999999999999" as="targetPoint"/>
                        <Array as="points">
                            <mxPoint x="250" y="250"/>
                            <mxPoint x="434" y="250"/>
                        </Array>
                    </mxGeometry>
                </mxCell>
                <mxCell id="qKPQg7KvYXNb3GQMNt82-5" value="&lt;font color=&quot;#5e6697&quot;&gt;Disk&lt;/font&gt;" style="text;html=1;align=left;verticalAlign=middle;resizable=0;points=[];autosize=1;strokeColor=none;fillColor=none;fontFamily=JetBrains Mono;fontStyle=1" vertex="1" parent="1">
                    <mxGeometry x="291.25" y="148.25" width="50" height="30" as="geometry"/>
                </mxCell>
                <mxCell id="qKPQg7KvYXNb3GQMNt82-6" value="&lt;font color=&quot;#5e6697&quot;&gt;Disk&lt;/font&gt;" style="text;html=1;align=left;verticalAlign=middle;resizable=0;points=[];autosize=1;strokeColor=none;fillColor=none;fontFamily=JetBrains Mono;fontStyle=1" vertex="1" parent="1">
                    <mxGeometry x="350" y="148.25" width="50" height="30" as="geometry"/>
                </mxCell>
                <mxCell id="qKPQg7KvYXNb3GQMNt82-7" value="&lt;font color=&quot;#5e6697&quot;&gt;Image&lt;/font&gt;" style="text;html=1;align=left;verticalAlign=middle;resizable=0;points=[];autosize=1;strokeColor=none;fillColor=none;fontFamily=JetBrains Mono;fontStyle=1" vertex="1" parent="1">
                    <mxGeometry x="411.25" y="148.25" width="60" height="30" as="geometry"/>
                </mxCell>
                <mxCell id="CHAoX78ujg6pdra27HCG-1" value="RBAC" style="rounded=1;whiteSpace=wrap;html=1;fillColor=#e51601;fontColor=#f5f5fb;strokeColor=#e51601;arcSize=10;strokeWidth=2;fontFamily=JetBrains Mono;fontSource=https%3A%2F%2Ffonts.googleapis.com%2Fcss%3Ffamily%3DJetBrains%2BMono;fillStyle=auto;fontSize=12;fontStyle=1" vertex="1" parent="1">
                    <mxGeometry x="80" y="40" width="40" height="40" as="geometry"/>
                </mxCell>
                <mxCell id="hnj8Xd_3GWVb7aSkv3pW-3" style="edgeStyle=orthogonalEdgeStyle;html=1;entryX=0;entryY=0.5;entryDx=0;entryDy=0;strokeWidth=2;fontFamily=JetBrains Mono;fontSource=https%3A%2F%2Ffonts.googleapis.com%2Fcss%3Ffamily%3DJetBrains%2BMono;fontColor=#5E6697;startArrow=classic;startFill=1;endArrow=classic;endFill=1;strokeColor=#5e6697;" edge="1" parent="1" source="hnj8Xd_3GWVb7aSkv3pW-1" target="CHAoX78ujg6pdra27HCG-1">
                    <mxGeometry relative="1" as="geometry">
                        <Array as="points">
                            <mxPoint x="40" y="197"/>
                            <mxPoint x="40" y="60"/>
                        </Array>
                    </mxGeometry>
                </mxCell>
                <mxCell id="hnj8Xd_3GWVb7aSkv3pW-1" value="&lt;font style=&quot;font-size: 42px;&quot;&gt;🧑‍💻&lt;/font&gt;" style="text;html=1;align=center;verticalAlign=middle;resizable=0;points=[];autosize=1;strokeColor=none;fillColor=none;fontStyle=1" vertex="1" parent="1">
                    <mxGeometry x="-180" y="167" width="80" height="60" as="geometry"/>
                </mxCell>
                <mxCell id="hnj8Xd_3GWVb7aSkv3pW-2" value="" style="html=1;verticalLabelPosition=bottom;align=center;labelBackgroundColor=#ffffff;verticalAlign=top;strokeWidth=2;strokeColor=#cdd1e6;shadow=0;dashed=0;shape=mxgraph.ios7.icons.cloud;rounded=1;fontFamily=JetBrains Mono;fontSource=https%3A%2F%2Ffonts.googleapis.com%2Fcss%3Ffamily%3DJetBrains%2BMono;fillColor=#cdd1e6;" vertex="1" parent="1">
                    <mxGeometry x="-60" y="167.75" width="70" height="48" as="geometry"/>
                </mxCell>
                <mxCell id="Z2pybZYhK5x8L16QMGhD-1" value="" style="shape=image;verticalLabelPosition=bottom;verticalAlign=top;imageAspect=0;aspect=fixed;image=data:image/svg+xml,PHN2ZyB4bWxucz0iaHR0cDovL3d3dy53My5vcmcvMjAwMC9zdmciIGZpbGw9Im5vbmUiIHZpZXdCb3g9IjAgMCAyODEgMjgxIiBoZWlnaHQ9IjI4MSIgd2lkdGg9IjI4MSI+CjxwYXRoIGZpbGw9IiMwMDAwM0MiIGQ9Ik0yMDguOTQ1IDAuNUwyMjQuODk2IDU1LjYwMzlMMjgwIDcxLjU1NTFMMjQ4LjA5OCAxMDMuNDU3TDE5Mi45OTQgODcuNTA2MkwxNzcuMDQzIDMyLjQwMjNMMjA4Ljk0NSAwLjVaIi8+CjxwYXRoIGZpbGw9IiMwMDAwM0MiIGQ9Ik0wIDIwOS40NDVMNTUuMTA0IDIyNS4zOTZMNzEuMDU1MSAyODAuNUwxMDIuOTU3IDI0OC41OThMODcuMDA2MiAxOTMuNDk0TDMxLjkwMjMgMTc3LjU0M0wwIDIwOS40NDVaIi8+CjxwYXRoIGZpbGw9IiMwMDAwM0MiIGQ9Ik0yODAuMDAyIDIwOS40NDVMMjI0Ljg5OCAyMjUuMzk2TDIwOC45NDcgMjgwLjVMMTc3LjA0NSAyNDguNTk4TDE5Mi45OTYgMTkzLjQ5NEwyNDguMSAxNzcuNTQzTDI4MC4wMDIgMjA5LjQ0NVoiLz4KPHBhdGggZmlsbD0iIzAwMDAzQyIgZD0iTTcxLjA1NDcgMC41TDU1LjEwMzUgNTUuNjAzOUwtMC4wMDA0MDQwMDggNzEuNTU1MUwzMS45MDE5IDEwMy40NTdMODcuMDA1OCA4Ny41MDYyTDEwMi45NTcgMzIuNDAyM0w3MS4wNTQ3IDAuNVoiLz4KPHBhdGggZmlsbD0iIzAwNjRGRiIgZD0iTTE0Ni4xNDMgMTgwLjVIMTA2LjE0M1YxMDAuNUgxNDYuMTQzQzE2OC4xNzIgMTAwLjUgMTg2LjE0MyAxMTguNDcxIDE4Ni4xNDMgMTQwLjVDMTg2LjE0MyAxNjIuNTI5IDE2OC4xNzIgMTgwLjUgMTQ2LjE0MyAxODAuNVoiLz4KPC9zdmc+" vertex="1" parent="1">
                    <mxGeometry x="80" y="-20" width="45" height="45" as="geometry"/>
                </mxCell>
            </root>
        </mxGraphModel>
    </diagram>
    <diagram id="6EXt89o7fHejoy0miyVt" name="Page-1">
        <mxGraphModel dx="927" dy="1107" grid="1" gridSize="10" guides="1" tooltips="1" connect="1" arrows="1" fold="1" page="0" pageScale="1" pageWidth="850" pageHeight="1100" math="0" shadow="0">
            <root>
                <mxCell id="0"/>
                <mxCell id="1" parent="0"/>
                <mxCell id="53" value="" style="rounded=0;whiteSpace=wrap;html=1;fontFamily=JetBrains Mono;fontSource=https%3A%2F%2Ffonts.googleapis.com%2Fcss%3Ffamily%3DJetBrains%2BMono;fontSize=12;fillColor=#FFFFFF;strokeColor=none;fontStyle=1" parent="1" vertex="1">
                    <mxGeometry x="80" width="600" height="440" as="geometry"/>
                </mxCell>
                <mxCell id="130" value="" style="rounded=1;whiteSpace=wrap;html=1;fillColor=#f5f5fb;strokeColor=#f5f5fb;arcSize=5;strokeWidth=2;fontFamily=JetBrains Mono;fontSource=https%3A%2F%2Ffonts.googleapis.com%2Fcss%3Ffamily%3DJetBrains%2BMono;fillStyle=auto;fontSize=12;fontStyle=1" parent="1" vertex="1">
                    <mxGeometry x="200" y="40" width="440" height="310" as="geometry"/>
                </mxCell>
                <mxCell id="157" value="" style="rounded=1;whiteSpace=wrap;html=1;fillColor=#969dc4;fontColor=#f5f5fb;strokeColor=none;arcSize=8;strokeWidth=2;fontFamily=JetBrains Mono;fontSource=https%3A%2F%2Ffonts.googleapis.com%2Fcss%3Ffamily%3DJetBrains%2BMono;fillStyle=auto;fontSize=12;dashed=1;fontStyle=1" parent="1" vertex="1">
                    <mxGeometry x="210" y="210" width="420" height="130" as="geometry"/>
                </mxCell>
                <mxCell id="2" value="Node" style="rounded=1;whiteSpace=wrap;html=1;fillColor=#cdd1e6;strokeColor=#cdd1e6;arcSize=15;strokeWidth=2;fontFamily=JetBrains Mono;fontSource=https%3A%2F%2Ffonts.googleapis.com%2Fcss%3Ffamily%3DJetBrains%2BMono;fillStyle=auto;fontSize=12;fontStyle=1" parent="1" vertex="1">
                    <mxGeometry x="200" y="360" width="80" height="40" as="geometry"/>
                </mxCell>
                <mxCell id="78" style="edgeStyle=none;html=1;fontFamily=JetBrains Mono;fontSource=https%3A%2F%2Ffonts.googleapis.com%2Fcss%3Ffamily%3DJetBrains%2BMono;fontSize=12;fontColor=#0066FF;strokeWidth=2;fillColor=#89bfff;strokeColor=#89bfff;entryX=0;entryY=0.5;entryDx=0;entryDy=0;fontStyle=1" parent="1" source="162" target="142" edge="1">
                    <mxGeometry relative="1" as="geometry">
                        <mxPoint x="125" y="180" as="sourcePoint"/>
                    </mxGeometry>
                </mxCell>
                <mxCell id="149" style="edgeStyle=orthogonalEdgeStyle;html=1;strokeWidth=2;fontSize=12;startArrow=classic;startFill=1;fillColor=#89bfff;strokeColor=#89bfff;exitX=0.5;exitY=1;exitDx=0;exitDy=0;fontStyle=1" parent="1" source="133" target="145" edge="1">
                    <mxGeometry relative="1" as="geometry">
                        <Array as="points">
                            <mxPoint x="380" y="240"/>
                            <mxPoint x="420" y="240"/>
                        </Array>
                    </mxGeometry>
                </mxCell>
                <mxCell id="150" style="edgeStyle=orthogonalEdgeStyle;html=1;strokeWidth=2;fontSize=12;startArrow=classic;startFill=1;fillColor=#89bfff;strokeColor=#89bfff;exitX=0.5;exitY=1;exitDx=0;exitDy=0;fontStyle=1" parent="1" source="133" target="147" edge="1">
                    <mxGeometry relative="1" as="geometry">
                        <Array as="points">
                            <mxPoint x="380" y="240"/>
                            <mxPoint x="270" y="240"/>
                        </Array>
                    </mxGeometry>
                </mxCell>
                <mxCell id="151" style="edgeStyle=orthogonalEdgeStyle;html=1;strokeWidth=2;fontSize=12;startArrow=classic;startFill=1;fillColor=#89bfff;strokeColor=#89bfff;exitX=0.5;exitY=1;exitDx=0;exitDy=0;fontStyle=1" parent="1" source="133" target="146" edge="1">
                    <mxGeometry relative="1" as="geometry">
                        <Array as="points">
                            <mxPoint x="380" y="240"/>
                            <mxPoint x="570" y="240"/>
                        </Array>
                    </mxGeometry>
                </mxCell>
                <mxCell id="133" value="Virtualization API" style="rounded=1;whiteSpace=wrap;html=1;fillColor=#89bfff;strokeColor=#89bfff;arcSize=13;strokeWidth=2;fontFamily=JetBrains Mono;fontSource=https%3A%2F%2Ffonts.googleapis.com%2Fcss%3Ffamily%3DJetBrains%2BMono;fillStyle=auto;fontSize=12;fontStyle=1" parent="1" vertex="1">
                    <mxGeometry x="300" y="60" width="160" height="40" as="geometry"/>
                </mxCell>
                <mxCell id="153" style="edgeStyle=none;html=1;entryX=0.75;entryY=0;entryDx=0;entryDy=0;strokeWidth=2;fontSize=12;startArrow=classic;startFill=1;fillColor=#ffab40;strokeColor=#ffab40;dashed=1;dashPattern=1 1;exitX=0.5;exitY=1;exitDx=0;exitDy=0;fontStyle=1" parent="1" source="134" target="145" edge="1">
                    <mxGeometry relative="1" as="geometry">
                        <mxPoint x="434" y="203" as="sourcePoint"/>
                    </mxGeometry>
                </mxCell>
                <mxCell id="134" value="CORE" style="rounded=1;whiteSpace=wrap;html=1;fillColor=#89bfff;strokeColor=#89bfff;arcSize=13;strokeWidth=2;fontFamily=JetBrains Mono;fontSource=https%3A%2F%2Ffonts.googleapis.com%2Fcss%3Ffamily%3DJetBrains%2BMono;fillStyle=auto;fontSize=12;fontStyle=1;" parent="1" vertex="1">
                    <mxGeometry x="400" y="130" width="80" height="40" as="geometry"/>
                </mxCell>
                <mxCell id="152" style="edgeStyle=none;html=1;strokeWidth=2;fontSize=12;startArrow=classic;startFill=1;fillColor=#ffab40;strokeColor=#ffab40;exitX=0.75;exitY=1;exitDx=0;exitDy=0;entryX=0.75;entryY=0;entryDx=0;entryDy=0;dashed=1;dashPattern=1 1;fontStyle=1" parent="1" source="135" target="146" edge="1">
                    <mxGeometry relative="1" as="geometry"/>
                </mxCell>
                <mxCell id="135" value="DVCR" style="rounded=1;whiteSpace=wrap;html=1;fillColor=#89bfff;strokeColor=#89bfff;arcSize=10;strokeWidth=2;fontFamily=JetBrains Mono;fontSource=https%3A%2F%2Ffonts.googleapis.com%2Fcss%3Ffamily%3DJetBrains%2BMono;fillStyle=auto;fontSize=12;fontStyle=1;" parent="1" vertex="1">
                    <mxGeometry x="530" y="130" width="80" height="40" as="geometry"/>
                </mxCell>
                <mxCell id="141" style="edgeStyle=orthogonalEdgeStyle;html=1;exitX=1;exitY=0.5;exitDx=0;exitDy=0;fontSize=12;startArrow=classic;startFill=1;fillColor=#89bfff;strokeColor=#89bfff;strokeWidth=2;fontStyle=1" parent="1" source="140" target="133" edge="1">
                    <mxGeometry relative="1" as="geometry"/>
                </mxCell>
                <mxCell id="140" value="K8s API" style="rounded=1;whiteSpace=wrap;html=1;fillColor=#89bfff;strokeColor=#89bfff;arcSize=8;strokeWidth=2;fontFamily=JetBrains Mono;fontSource=https%3A%2F%2Ffonts.googleapis.com%2Fcss%3Ffamily%3DJetBrains%2BMono;fillStyle=auto;fontSize=12;fontStyle=1;" parent="1" vertex="1">
                    <mxGeometry x="262.5" y="130" width="87.5" height="40" as="geometry"/>
                </mxCell>
                <mxCell id="142" value="RBAC" style="rounded=1;whiteSpace=wrap;html=1;fillColor=#e51601;fontColor=#f5f5fb;strokeColor=#e51601;arcSize=10;strokeWidth=2;fontFamily=JetBrains Mono;fontSource=https%3A%2F%2Ffonts.googleapis.com%2Fcss%3Ffamily%3DJetBrains%2BMono;fillStyle=auto;fontSize=12;fontStyle=1" parent="1" vertex="1">
                    <mxGeometry x="220" y="130" width="40" height="40" as="geometry"/>
                </mxCell>
                <mxCell id="144" value="&lt;font style=&quot;font-size: 12px;&quot;&gt;Project&lt;/font&gt;" style="text;html=1;strokeColor=none;fillColor=none;align=left;verticalAlign=middle;whiteSpace=wrap;rounded=0;fontColor=#FFFFFF;strokeWidth=2;fontFamily=JetBrains Mono;fontSource=https%3A%2F%2Ffonts.googleapis.com%2Fcss%3Ffamily%3DJetBrains%2BMono;fontSize=12;fontStyle=1;" parent="1" vertex="1">
                    <mxGeometry x="220" y="215" width="60" height="20" as="geometry"/>
                </mxCell>
                <mxCell id="145" value="VM" style="rounded=1;whiteSpace=wrap;html=1;fillColor=#e1f0ff;strokeColor=#e1f0ff;arcSize=13;strokeWidth=2;fontFamily=JetBrains Mono;fontSource=https%3A%2F%2Ffonts.googleapis.com%2Fcss%3Ffamily%3DJetBrains%2BMono;fillStyle=auto;fontSize=12;fontStyle=1" parent="1" vertex="1">
                    <mxGeometry x="380" y="280" width="80" height="40" as="geometry"/>
                </mxCell>
                <mxCell id="146" value="Image" style="rounded=1;whiteSpace=wrap;html=1;fillColor=#e1f0ff;strokeColor=#e1f0ff;arcSize=15;strokeWidth=2;fontFamily=JetBrains Mono;fontSource=https%3A%2F%2Ffonts.googleapis.com%2Fcss%3Ffamily%3DJetBrains%2BMono;fillStyle=auto;fontSize=12;fontStyle=1" parent="1" vertex="1">
                    <mxGeometry x="530" y="280" width="80" height="40" as="geometry"/>
                </mxCell>
                <mxCell id="147" value="Disk" style="rounded=1;whiteSpace=wrap;html=1;fillColor=#e1f0ff;arcSize=11;strokeWidth=2;fontFamily=JetBrains Mono;fontSource=https%3A%2F%2Ffonts.googleapis.com%2Fcss%3Ffamily%3DJetBrains%2BMono;fillStyle=auto;fontSize=12;strokeColor=#e1f0ff;fontStyle=1" parent="1" vertex="1">
                    <mxGeometry x="230" y="280" width="80" height="40" as="geometry"/>
                </mxCell>
                <mxCell id="154" value="&lt;font&gt;Create&lt;br&gt;Read&lt;br&gt;Update&lt;br&gt;Delete&lt;/font&gt;" style="text;html=1;strokeColor=none;fillColor=none;align=left;verticalAlign=middle;whiteSpace=wrap;rounded=0;fontColor=default;strokeWidth=2;fontFamily=JetBrains Mono;fontSource=https%3A%2F%2Ffonts.googleapis.com%2Fcss%3Ffamily%3DJetBrains%2BMono;fontSize=10;fontStyle=1;" parent="1" vertex="1">
                    <mxGeometry x="102.5" y="190" width="35" height="20" as="geometry"/>
                </mxCell>
                <mxCell id="158" value="Node" style="rounded=1;whiteSpace=wrap;html=1;fillColor=#cdd1e6;strokeColor=#cdd1e6;arcSize=15;strokeWidth=2;fontFamily=JetBrains Mono;fontSource=https%3A%2F%2Ffonts.googleapis.com%2Fcss%3Ffamily%3DJetBrains%2BMono;fillStyle=auto;fontSize=12;fontStyle=1" parent="1" vertex="1">
                    <mxGeometry x="290" y="360" width="80" height="40" as="geometry"/>
                </mxCell>
                <mxCell id="159" value="Node" style="rounded=1;whiteSpace=wrap;html=1;fillColor=#cdd1e6;strokeColor=#cdd1e6;arcSize=15;strokeWidth=2;fontFamily=JetBrains Mono;fontSource=https%3A%2F%2Ffonts.googleapis.com%2Fcss%3Ffamily%3DJetBrains%2BMono;fillStyle=auto;fontSize=12;fontStyle=1" parent="1" vertex="1">
                    <mxGeometry x="380" y="360" width="80" height="40" as="geometry"/>
                </mxCell>
                <mxCell id="160" value="Node" style="rounded=1;whiteSpace=wrap;html=1;fillColor=#cdd1e6;strokeColor=#cdd1e6;arcSize=15;strokeWidth=2;fontFamily=JetBrains Mono;fontSource=https%3A%2F%2Ffonts.googleapis.com%2Fcss%3Ffamily%3DJetBrains%2BMono;fillStyle=auto;fontSize=12;fontStyle=1" parent="1" vertex="1">
                    <mxGeometry x="470" y="360" width="80" height="40" as="geometry"/>
                </mxCell>
                <mxCell id="161" value="Node" style="rounded=1;whiteSpace=wrap;html=1;fillColor=#cdd1e6;strokeColor=#cdd1e6;arcSize=15;strokeWidth=2;fontFamily=JetBrains Mono;fontSource=https%3A%2F%2Ffonts.googleapis.com%2Fcss%3Ffamily%3DJetBrains%2BMono;fillStyle=auto;fontSize=12;fontStyle=1" parent="1" vertex="1">
                    <mxGeometry x="560" y="360" width="80" height="40" as="geometry"/>
                </mxCell>
                <mxCell id="162" value="&lt;font style=&quot;font-size: 42px;&quot;&gt;🧑‍💻&lt;/font&gt;" style="text;html=1;align=center;verticalAlign=middle;resizable=0;points=[];autosize=1;strokeColor=none;fillColor=none;fontStyle=1" parent="1" vertex="1">
                    <mxGeometry x="80" y="120" width="80" height="60" as="geometry"/>
                </mxCell>
                <mxCell id="163" value="" style="shape=image;verticalLabelPosition=bottom;verticalAlign=top;imageAspect=0;aspect=fixed;image=data:image/svg+xml,PHN2ZyB4bWxucz0iaHR0cDovL3d3dy53My5vcmcvMjAwMC9zdmciIGZpbGw9Im5vbmUiIHZpZXdCb3g9IjAgMCAyODEgMjgxIiBoZWlnaHQ9IjI4MSIgd2lkdGg9IjI4MSI+CjxwYXRoIGZpbGw9IiMwMDAwM0MiIGQ9Ik0yMDguOTQ1IDAuNUwyMjQuODk2IDU1LjYwMzlMMjgwIDcxLjU1NTFMMjQ4LjA5OCAxMDMuNDU3TDE5Mi45OTQgODcuNTA2MkwxNzcuMDQzIDMyLjQwMjNMMjA4Ljk0NSAwLjVaIi8+CjxwYXRoIGZpbGw9IiMwMDAwM0MiIGQ9Ik0wIDIwOS40NDVMNTUuMTA0IDIyNS4zOTZMNzEuMDU1MSAyODAuNUwxMDIuOTU3IDI0OC41OThMODcuMDA2MiAxOTMuNDk0TDMxLjkwMjMgMTc3LjU0M0wwIDIwOS40NDVaIi8+CjxwYXRoIGZpbGw9IiMwMDAwM0MiIGQ9Ik0yODAuMDAyIDIwOS40NDVMMjI0Ljg5OCAyMjUuMzk2TDIwOC45NDcgMjgwLjVMMTc3LjA0NSAyNDguNTk4TDE5Mi45OTYgMTkzLjQ5NEwyNDguMSAxNzcuNTQzTDI4MC4wMDIgMjA5LjQ0NVoiLz4KPHBhdGggZmlsbD0iIzAwMDAzQyIgZD0iTTcxLjA1NDcgMC41TDU1LjEwMzUgNTUuNjAzOUwtMC4wMDA0MDQwMDggNzEuNTU1MUwzMS45MDE5IDEwMy40NTdMODcuMDA1OCA4Ny41MDYyTDEwMi45NTcgMzIuNDAyM0w3MS4wNTQ3IDAuNVoiLz4KPHBhdGggZmlsbD0iIzAwNjRGRiIgZD0iTTE0Ni4xNDMgMTgwLjVIMTA2LjE0M1YxMDAuNUgxNDYuMTQzQzE2OC4xNzIgMTAwLjUgMTg2LjE0MyAxMTguNDcxIDE4Ni4xNDMgMTQwLjVDMTg2LjE0MyAxNjIuNTI5IDE2OC4xNzIgMTgwLjUgMTQ2LjE0MyAxODAuNVoiLz4KPC9zdmc+" parent="1" vertex="1">
                    <mxGeometry x="217.5" y="57.5" width="45" height="45" as="geometry"/>
                </mxCell>
            </root>
        </mxGraphModel>
    </diagram>
</mxfile>
